<?xml version="1.0" standalone="no"?>
<!DOCTYPE svg PUBLIC "-//W3C//DTD SVG 20010904//EN"
 "http://www.w3.org/TR/2001/REC-SVG-20010904/DTD/svg10.dtd">
<svg version="1.0" xmlns="http://www.w3.org/2000/svg"
 width="640.000000pt" height="640.000000pt" viewBox="0 0 640.000000 640.000000"
 preserveAspectRatio="xMidYMid meet">
<metadata>
Created by potrace 1.14, written by Peter Selinger 2001-2017
</metadata>
<g transform="translate(0.000000,640.000000) scale(0.100000,-0.100000)"
fill="#000000" stroke="none">
<path d="M2480 5443 c0 -5 -15 -8 -34 -7 -53 3 -162 -56 -229 -123 -68 -67
-147 -182 -207 -303 -23 -47 -46 -92 -51 -102 -26 -52 -135 -348 -155 -423 -2
-5 -21 -73 -44 -150 -22 -77 -45 -160 -51 -185 -6 -25 -13 -54 -16 -65 -6 -26
-22 -94 -29 -125 -3 -14 -10 -43 -16 -65 -5 -22 -12 -51 -14 -65 -3 -14 -7
-32 -9 -40 -2 -8 -7 -28 -10 -45 -2 -16 -7 -39 -9 -50 -9 -43 -55 -282 -60
-310 -3 -16 -8 -47 -11 -69 -4 -21 -9 -48 -11 -60 -2 -11 -7 -37 -10 -56 -2
-19 -7 -47 -10 -61 -5 -25 -1 -28 58 -47 65 -21 284 -78 328 -86 14 -2 36 -7
50 -10 48 -11 163 -32 285 -51 39 -6 122 -17 160 -21 84 -8 155 -15 205 -19
30 -2 55 -5 55 -5 0 -2 134 -9 315 -15 201 -7 174 -7 270 -6 41 1 82 1 90 1
33 -1 270 9 347 14 101 7 162 12 348 32 85 9 315 45 380 59 6 2 26 6 45 9 19
3 73 15 120 26 47 11 96 23 110 26 14 2 47 12 73 20 26 9 56 17 65 19 9 2 18
4 20 5 1 2 5 3 10 4 47 11 54 18 48 49 -3 18 -8 52 -11 77 -3 25 -8 56 -11 70
-7 30 -8 37 -29 160 -9 52 -18 106 -21 120 -3 14 -6 34 -8 45 -2 11 -6 29 -9
40 -4 11 -9 37 -11 57 -3 20 -9 54 -15 75 -6 21 -13 54 -16 73 -3 19 -11 53
-17 75 -5 22 -12 51 -15 65 -2 14 -13 61 -24 105 -11 44 -24 96 -29 115 -73
312 -245 760 -352 917 -15 23 -28 46 -28 52 0 6 -3 11 -8 11 -4 0 -14 11 -23
26 -31 51 -131 142 -190 174 -138 73 -325 39 -507 -93 -66 -48 -136 -83 -204
-104 -64 -19 -197 -25 -258 -12 -25 6 -53 11 -62 13 -10 1 -21 5 -24 9 -4 4
-14 7 -21 7 -16 0 -144 73 -165 93 -44 45 -200 110 -286 121 -24 3 -47 8 -53
11 -5 4 -9 2 -9 -2z"/>
<path d="M94 3494 c-39 -19 -74 -55 -79 -80 -2 -11 -4 -19 -6 -19 -9 0 -3 -86
8 -107 7 -16 12 -28 9 -28 -6 0 83 -180 105 -211 10 -14 16 -28 13 -31 -2 -3
2 -11 11 -18 8 -7 15 -16 15 -21 0 -10 119 -198 137 -217 7 -7 13 -17 13 -22
0 -5 6 -15 13 -22 6 -7 39 -49 71 -93 225 -303 561 -618 861 -804 39 -24 93
-58 120 -76 117 -74 447 -226 575 -265 25 -7 51 -18 58 -23 7 -6 15 -7 19 -4
3 4 11 3 17 -2 7 -6 23 -12 36 -15 14 -3 50 -12 80 -21 30 -9 71 -20 90 -25
124 -29 230 -51 260 -55 19 -2 50 -6 68 -9 70 -13 89 -15 152 -21 36 -3 83 -8
105 -11 22 -3 102 -7 178 -9 77 -2 141 -6 144 -8 2 -3 17 -2 31 2 15 4 39 4
55 0 15 -4 27 -4 27 -1 0 4 35 7 78 8 165 2 357 21 527 54 28 5 61 12 75 14
14 2 48 10 75 16 28 6 57 13 65 15 68 14 282 77 350 103 8 3 17 6 20 7 7 2 62
24 80 32 8 3 17 7 20 8 3 1 22 9 44 18 21 9 40 17 43 17 7 0 257 126 293 149
19 11 47 26 62 32 16 6 28 15 28 20 0 5 5 9 10 9 26 0 302 199 433 311 163
140 407 406 545 594 34 45 102 147 102 151 0 3 11 20 25 38 14 18 25 36 25 40
0 5 8 20 19 34 29 41 146 271 166 327 10 28 21 55 24 60 16 27 -5 98 -37 126
-44 39 -66 47 -118 45 -47 -1 -59 -8 -185 -101 -74 -55 -143 -106 -154 -112
-247 -153 -523 -297 -668 -349 -20 -7 -52 -20 -70 -28 -45 -20 -195 -75 -237
-87 -19 -6 -42 -12 -50 -15 -8 -3 -17 -5 -20 -6 -3 0 -21 -6 -40 -14 -83 -31
-419 -115 -521 -130 -14 -2 -47 -8 -73 -14 -46 -10 -76 -15 -146 -24 -19 -3
-46 -7 -60 -10 -14 -3 -47 -7 -75 -10 -27 -3 -68 -7 -90 -10 -173 -20 -233
-24 -460 -32 -184 -6 -160 -6 -250 -3 -39 2 -76 -1 -83 -5 -7 -4 -12 -4 -12 1
0 4 -26 8 -58 9 -66 1 -283 13 -327 19 -16 2 -55 6 -85 9 -63 7 -110 13 -160
21 -19 3 -53 8 -75 10 -22 3 -62 9 -90 15 -27 5 -63 12 -80 15 -16 2 -41 7
-55 10 -14 2 -36 7 -50 10 -25 4 -151 33 -180 40 -8 2 -42 11 -75 20 -33 9
-67 18 -75 20 -8 2 -15 4 -15 5 0 1 -10 3 -23 6 -13 2 -60 16 -105 31 -45 15
-86 28 -92 29 -18 3 -329 121 -380 144 -128 58 -306 146 -389 192 -111 63
-250 150 -254 160 -2 5 -9 8 -16 8 -7 0 -21 9 -31 20 -10 11 -22 20 -26 20 -8
0 -30 16 -63 45 -100 90 -173 113 -242 79z"/>
</g>
</svg>
